<svg xmlns="http://www.w3.org/2000/svg" viewBox="0 0 256 256" width="100%" height="100%"><path fill="#F2F2F2" fill-rule="nonzero" d="M38.6041 27.4285C26.3895 27.4285 16.2549 37.5631 16.2549 49.7777V206.222C16.2549 218.437 26.3895 228.571 38.6041 228.571H217.398C229.612 228.571 239.747 218.437 239.747 206.222V49.7777C239.747 37.5631 229.612 27.4285 217.398 27.4285H38.6041ZM38.6041 49.7777H217.398V206.222H38.6041V49.7777ZM61.9751 73.1427C61.4228 73.1427 60.9751 73.5905 60.9751 74.1427V96.5237C60.9751 97.076 61.4228 97.5237 61.9751 97.5237H84.3337C84.886 97.5237 85.3337 97.076 85.3337 96.5237V74.1427C85.3337 73.5905 84.886 73.1427 84.3337 73.1427H61.9751ZM171.667 73.1427C171.115 73.1427 170.667 73.5905 170.667 74.1427V96.5237C170.667 97.076 171.115 97.5237 171.667 97.5237H194.049C194.601 97.5237 195.049 97.076 195.049 96.5237V74.1427C195.049 73.5905 194.601 73.1427 194.049 73.1427H171.667ZM61.9533 115.809C61.401 115.809 60.9533 116.257 60.9533 116.809V139.19C60.9533 139.743 61.401 140.19 61.9533 140.19H84.3337C84.886 140.19 85.3337 139.743 85.3337 139.19V116.809C85.3337 116.257 84.886 115.809 84.3337 115.809H61.9533ZM171.667 115.809C171.115 115.809 170.667 116.257 170.667 116.809V139.19C170.667 139.743 171.115 140.19 171.667 140.19H194.049C194.601 140.19 195.049 139.743 195.049 139.19V116.809C195.049 116.257 194.601 115.809 194.049 115.809H171.667ZM61.9533 158.476C61.401 158.476 60.9533 158.924 60.9533 159.476V181.857C60.9533 182.409 61.401 182.857 61.9533 182.857H84.3337C84.886 182.857 85.3337 182.409 85.3337 181.857V159.476C85.3337 158.924 84.886 158.476 84.3337 158.476H61.9533ZM171.667 158.476C171.115 158.476 170.667 158.924 170.667 159.476V181.857C170.667 182.409 171.115 182.857 171.667 182.857H194.048C194.6 182.857 195.048 182.409 195.048 181.857L195.049 159.476C195.049 158.924 194.601 158.476 194.049 158.476H171.667Z"/></svg>