<svg xmlns="http://www.w3.org/2000/svg" viewBox="0 0 256 100" width="100%" height="100%"><path fill="#F2F2F2" fill-rule="nonzero" d="M31.9024 1.97395C33.6184 1.97395 34.8725 2.89774 35.2685 4.54738L52.4951 66.5078L69.9198 4.54738C70.3158 2.96373 71.5039 1.97395 73.2859 1.97395H101.403C102.723 1.97395 103.647 3.29366 103.251 4.54738L75.53 93.1659C75.002 94.8815 73.814 95.7393 72.0319 95.7393H32.4304C30.7143 95.7393 29.4603 94.9475 28.9323 93.1659L1.07919 4.54738C0.683174 3.35964 1.67321 1.97395 2.99326 1.97395H31.9024ZM108.465 19.6581C108.465 9.23235 117.046 0.654236 127.474 0.654236C137.902 0.654236 146.483 9.23235 146.483 19.6581C146.483 30.0838 137.902 38.6619 127.474 38.6619C117.046 38.6619 108.465 30.0838 108.465 19.6581ZM144.503 92.9679C144.503 94.5516 143.447 95.6734 141.797 95.6734H113.151C111.567 95.6734 110.445 94.6176 110.445 92.9679V48.6917C110.445 47.108 111.501 45.9863 113.151 45.9863H141.797C143.381 45.9863 144.503 47.042 144.503 48.6917V92.9679ZM154.271 92.3081L181.332 48.8236L154.271 5.33921C153.281 3.75555 154.139 1.97395 155.987 1.97395H186.612C188.724 1.97395 189.978 2.6338 190.902 4.21745L205.753 30.1498L220.604 4.21745C221.594 2.6338 222.782 1.97395 224.894 1.97395H254.859C256.707 1.97395 257.565 3.68957 256.575 5.33921L229.514 48.8236L256.575 92.3081C257.499 93.8917 256.707 95.6734 254.859 95.6734H224.234C222.122 95.6734 220.868 95.0135 219.944 93.4298L205.093 67.4975L190.242 93.4298C189.318 95.0135 188.13 95.6734 185.952 95.6734H155.987C154.139 95.6734 153.281 93.9577 154.271 92.3081Z"/></svg>